<svg width="1200" height="300" viewBox="0 0 1200 300" fill="none" xmlns="http://www.w3.org/2000/svg">
<rect width="1200" height="300" fill="#0F1315"/>
<g clip-path="url(#clip0_235_2140)">
<g clip-path="url(#clip1_235_2140)">
<path d="M738.308 121.347V117.862H737.016V117.283H740.296V117.862H739.003V121.347H738.308ZM740.848 121.347V117.283H741.971L742.577 119.341C742.674 119.696 742.781 120.108 742.808 120.464H743.021C743.056 120.108 743.164 119.696 743.271 119.341L743.877 117.283H745V121.347H744.332V119.484C744.332 119.012 744.351 118.619 744.394 118.137H744.182C744.093 118.608 743.985 119.047 743.842 119.564L743.325 121.347H742.515L742.016 119.572C741.874 119.037 741.758 118.611 741.669 118.137H741.446C741.499 118.635 741.516 119.01 741.516 119.5V121.344H740.848V121.347Z" fill="white"/>
<path d="M535.708 121.177L532.757 113.163C532.719 113.058 532.617 112.988 532.504 112.988H519.319C519.206 112.988 519.106 113.058 519.066 113.163L516.114 121.177C516.077 121.282 515.974 121.352 515.861 121.352H512.344C512.156 121.352 512.026 121.164 512.091 120.989L523.555 90.7065C523.595 90.6015 523.695 90.5315 523.808 90.5315H528.103C528.217 90.5315 528.316 90.6015 528.357 90.7065L539.734 120.989C539.802 121.164 539.67 121.352 539.481 121.352H535.964C535.851 121.352 535.751 121.282 535.711 121.177H535.708ZM525.427 94.8483C525.297 94.8483 525.19 94.9372 525.165 95.0638C524.675 97.5117 523.854 100.137 522.742 103.258L520.498 109.323C520.434 109.498 520.563 109.687 520.752 109.687H531.074C531.262 109.687 531.392 109.501 531.327 109.323L529.084 103.258C527.928 100.137 527.147 97.5117 526.66 95.0638C526.636 94.9372 526.525 94.8483 526.399 94.8483H525.429H525.427Z" fill="white"/>
<path d="M586.188 110.039C586.188 102.51 590.284 98.0637 597.504 98.0637C604.724 98.0637 608.645 102.51 608.645 110.039C608.645 117.569 604.637 121.972 597.461 121.972C590.284 121.972 586.188 117.569 586.188 110.039ZM604.635 110.039C604.635 102.819 603.447 101.497 597.501 101.497C591.555 101.497 590.192 102.774 590.192 110.039C590.192 117.305 591.426 118.536 597.412 118.536C603.399 118.536 604.632 117.259 604.632 110.039H604.635Z" fill="white"/>
<path d="M612.032 121.086V98.947C612.032 98.7989 612.153 98.6777 612.302 98.6777H615.342C615.485 98.6777 615.603 98.7908 615.611 98.9336L615.676 100.358C615.681 100.501 615.8 100.614 615.945 100.614H616.804C616.88 100.614 616.95 100.582 617.001 100.528C618.328 99.0763 620.453 98.061 623.13 98.061C625.807 98.061 627.918 98.947 629.087 101.048C629.135 101.134 629.224 101.188 629.321 101.188H630.307C630.39 101.188 630.468 101.15 630.519 101.083C631.766 99.4533 633.948 98.061 637.308 98.061C641.711 98.061 644.838 100.218 644.838 105.634V121.083C644.838 121.231 644.717 121.352 644.569 121.352H641.41C641.262 121.352 641.14 121.231 641.14 121.083V106.824C641.14 102.068 640.303 101.32 635.768 101.32C631.233 101.32 630.264 102.375 630.264 107.131V121.083C630.264 121.231 630.142 121.352 629.994 121.352H626.835C626.687 121.352 626.566 121.231 626.566 121.083V106.824C626.566 102.068 625.729 101.32 621.151 101.32C616.573 101.32 615.692 102.375 615.692 107.131V121.083C615.692 121.231 615.571 121.352 615.423 121.352H612.307C612.159 121.352 612.038 121.231 612.038 121.083L612.032 121.086Z" fill="white"/>
<path d="M649.502 128.659V98.947C649.502 98.7989 649.623 98.6777 649.772 98.6777H652.809C652.955 98.6777 653.073 98.7908 653.078 98.9362L653.146 100.708C653.151 100.854 653.27 100.967 653.415 100.967H654.263C654.341 100.967 654.417 100.932 654.465 100.872C655.761 99.3294 658.152 98.061 661.432 98.061C667.243 98.061 671.03 102.2 671.03 109.905C671.03 118.051 666.802 121.969 661.3 121.969C658.066 121.969 655.72 120.703 654.465 119.163C654.414 119.101 654.339 119.063 654.258 119.063H653.423C653.275 119.063 653.154 119.185 653.154 119.333V128.656C653.154 128.804 653.033 128.925 652.885 128.925H649.769C649.621 128.925 649.5 128.804 649.5 128.656L649.502 128.659ZM666.982 109.994C666.982 102.553 666.102 101.451 660.069 101.451C654.037 101.451 653.157 102.553 653.157 109.994C653.157 117.434 654.08 118.579 660.069 118.579C666.059 118.579 666.982 117.434 666.982 109.994Z" fill="white"/>
<path d="M674.423 121.086V90.8035C674.423 90.6554 674.544 90.5342 674.692 90.5342H677.851C677.999 90.5342 678.12 90.6554 678.12 90.8035V121.086C678.12 121.234 677.999 121.355 677.851 121.355H674.692C674.544 121.355 674.423 121.234 674.423 121.086Z" fill="white"/>
<path d="M682.922 94.7998V90.8035C682.922 90.6554 683.043 90.5342 683.191 90.5342H686.528C686.676 90.5342 686.797 90.6554 686.797 90.8035V94.7998C686.797 94.9479 686.676 95.0691 686.528 95.0691H683.191C683.043 95.0691 682.922 94.9479 682.922 94.7998ZM683.008 121.086V98.947C683.008 98.7989 683.129 98.6777 683.277 98.6777H686.436C686.584 98.6777 686.705 98.7989 686.705 98.947V121.083C686.705 121.231 686.584 121.352 686.436 121.352H683.277C683.129 121.352 683.008 121.231 683.008 121.083V121.086Z" fill="white"/>
<path d="M690.145 114.397H693.242C693.382 114.397 693.497 114.504 693.508 114.644C693.767 117.429 694.817 118.8 699.608 118.8C704.143 118.8 705.066 117.655 705.066 114.97C705.066 113.298 704.186 112.417 701.544 111.932L696.745 111.052C693.266 110.392 690.36 108.763 690.36 105.02C690.36 100.924 693.926 98.0637 699.298 98.0637C704.178 98.0637 708.249 100.603 708.365 105.144C708.368 105.294 708.244 105.418 708.096 105.418H705.007C704.867 105.418 704.751 105.308 704.74 105.168C704.509 102.477 703.27 101.233 699.166 101.233C695.062 101.233 694.014 102.378 693.971 104.667C693.971 106.339 694.545 107.309 697.758 107.882L702.118 108.631C705.861 109.291 708.766 111.009 708.766 114.795C708.766 119.109 704.937 121.972 699.387 121.972C694.198 121.972 689.856 119.551 689.873 114.666C689.873 114.518 689.996 114.399 690.145 114.399V114.397Z" fill="white"/>
<path d="M711.982 121.086V90.8035C711.982 90.6554 712.103 90.5342 712.251 90.5342H715.41C715.558 90.5342 715.679 90.6554 715.679 90.8035V100.347C715.679 100.495 715.801 100.617 715.949 100.617H716.797C716.87 100.617 716.94 100.587 716.991 100.533C718.362 99.0816 720.537 98.0637 723.519 98.0637C728.142 98.0637 731.223 100.485 731.223 105.9V121.086C731.223 121.234 731.102 121.355 730.954 121.355H727.795C727.647 121.355 727.526 121.234 727.526 121.086V106.913C727.526 102.157 726.688 101.322 721.625 101.322C716.563 101.322 715.636 102.378 715.636 107.134V121.086C715.636 121.234 715.515 121.355 715.367 121.355H712.251C712.103 121.355 711.982 121.234 711.982 121.086Z" fill="white"/>
<path d="M557.689 114.286C557.551 114.286 557.435 114.391 557.422 114.531C557.074 117.776 555.623 118.625 551.05 118.625C545.944 118.625 544.226 117.612 544.226 109.994C544.226 102.375 545.944 101.408 551.05 101.408C555.623 101.408 557.074 102.259 557.422 105.507C557.435 105.644 557.551 105.752 557.689 105.752H560.78C560.936 105.752 561.063 105.617 561.049 105.461C560.629 100.657 556.924 98.0637 551.225 98.0637C544.49 98.0637 540.219 101.939 540.219 109.996C540.219 118.054 544.447 121.972 551.182 121.972C556.921 121.972 560.627 119.381 561.049 114.58C561.063 114.423 560.936 114.289 560.78 114.289H557.689V114.286Z" fill="white"/>
<path d="M581.112 114.286C580.974 114.286 580.859 114.391 580.845 114.531C580.498 117.776 579.046 118.625 574.474 118.625C569.368 118.625 567.65 117.612 567.65 109.994C567.65 102.375 569.368 101.408 574.474 101.408C579.046 101.408 580.498 102.259 580.845 105.507C580.859 105.644 580.974 105.752 581.112 105.752H584.203C584.36 105.752 584.486 105.617 584.473 105.461C584.053 100.657 580.347 98.0637 574.649 98.0637C567.914 98.0637 563.643 101.939 563.643 109.996C563.643 118.054 567.871 121.972 574.606 121.972C580.344 121.972 584.05 119.381 584.473 114.58C584.486 114.423 584.36 114.289 584.203 114.289H581.112V114.286Z" fill="white"/>
</g>
<path d="M479.65 127.115L483.299 113.424C483.422 112.961 482.927 112.579 482.516 112.818L470.339 119.909C469.968 120.127 469.99 120.674 470.377 120.862L473.631 122.43C473.938 122.578 474.031 122.971 473.823 123.243L470.74 127.29C470.561 127.527 470.604 127.864 470.839 128.044L471.723 128.728C471.958 128.909 472.292 128.866 472.471 128.629L475.554 124.581C475.76 124.309 476.163 124.298 476.385 124.56L478.728 127.323C479.008 127.651 479.537 127.53 479.65 127.113V127.115Z" fill="white"/>
<path d="M475.18 84.7981L471.531 98.4891C471.408 98.9523 471.902 99.3347 472.314 99.095L484.49 92.0018C484.861 91.7836 484.84 91.237 484.453 91.0485L481.199 89.4812C480.892 89.333 480.798 88.9399 481.006 88.6679L484.089 84.6204C484.268 84.3834 484.226 84.0468 483.991 83.8663L483.106 83.1823C482.871 83.0019 482.537 83.045 482.358 83.282L479.275 87.3295C479.07 87.6015 478.666 87.6122 478.445 87.351L476.102 84.588C475.821 84.2595 475.292 84.3807 475.18 84.7981Z" fill="white"/>
<path d="M460.354 118.487L473.941 114.827C474.4 114.703 474.483 114.081 474.069 113.842L461.887 106.756C461.516 106.541 461.054 106.832 461.088 107.265L461.369 110.89C461.395 111.232 461.104 111.512 460.765 111.466L455.748 110.798C455.454 110.761 455.187 110.968 455.15 111.262L455.005 112.374C454.968 112.67 455.174 112.939 455.465 112.977L460.482 113.645C460.818 113.691 461.03 114.035 460.915 114.359L459.712 117.784C459.568 118.193 459.94 118.597 460.354 118.484V118.487Z" fill="white"/>
<path d="M494.476 93.4263L480.889 97.086C480.43 97.2099 480.347 97.832 480.761 98.0716L492.943 105.157C493.314 105.372 493.776 105.081 493.742 104.648L493.461 101.023C493.434 100.681 493.725 100.401 494.065 100.447L499.082 101.115C499.376 101.152 499.643 100.945 499.68 100.651L499.827 99.5366C499.864 99.2404 499.659 98.9711 499.368 98.9334L494.351 98.2655C494.014 98.2197 493.803 97.875 493.918 97.5519L495.12 94.1264C495.264 93.7171 494.893 93.3132 494.479 93.4263H494.476Z" fill="white"/>
<path d="M458.12 97.3257L468.055 107.36C468.392 107.699 468.969 107.459 468.969 106.98V92.8042C468.969 92.3707 468.488 92.1148 468.133 92.3599L465.16 94.4173C464.879 94.6112 464.494 94.4954 464.364 94.1803L462.429 89.465C462.317 89.1903 462.005 89.0583 461.732 89.1741L460.701 89.605C460.428 89.7181 460.298 90.0332 460.412 90.3079L462.347 95.0232C462.477 95.341 462.285 95.6965 461.951 95.7584L458.406 96.4209C457.984 96.499 457.821 97.0241 458.126 97.3311L458.12 97.3257Z" fill="white"/>
<path d="M485.861 104.936V119.112C485.861 119.545 486.342 119.801 486.697 119.556L489.67 117.499C489.951 117.305 490.336 117.421 490.466 117.736L492.401 122.451C492.513 122.726 492.825 122.858 493.098 122.742L494.129 122.311C494.401 122.198 494.532 121.883 494.417 121.608L492.483 116.893C492.352 116.575 492.545 116.219 492.879 116.158L496.424 115.495C496.846 115.417 497.009 114.892 496.704 114.585L486.769 104.551C486.433 104.212 485.855 104.451 485.855 104.931L485.861 104.936Z" fill="white"/>
</g>
<path d="M362.135 167.928V154.688H357.895V153.928H367.255V154.688H363.035V167.928H362.135ZM369.457 167.928V153.528H370.357V159.948C370.69 159.201 371.177 158.628 371.817 158.228C372.47 157.814 373.164 157.608 373.897 157.608C374.63 157.608 375.277 157.754 375.837 158.048C376.397 158.341 376.83 158.794 377.137 159.408C377.457 160.021 377.617 160.808 377.617 161.768V167.928H376.737V161.908C376.737 160.721 376.484 159.848 375.977 159.288C375.47 158.714 374.744 158.428 373.797 158.428C373.144 158.428 372.557 158.594 372.037 158.928C371.517 159.248 371.104 159.714 370.797 160.328C370.504 160.928 370.357 161.668 370.357 162.548V167.928H369.457ZM384.378 168.168C383.432 168.168 382.612 167.948 381.918 167.508C381.238 167.068 380.712 166.448 380.338 165.648C379.965 164.848 379.778 163.908 379.778 162.828C379.778 161.734 379.972 160.801 380.358 160.028C380.758 159.254 381.305 158.661 381.998 158.248C382.705 157.821 383.512 157.608 384.418 157.608C385.392 157.608 386.205 157.828 386.858 158.268C387.512 158.694 388.005 159.261 388.338 159.968C388.672 160.674 388.838 161.448 388.838 162.288C388.838 162.421 388.838 162.548 388.838 162.668C388.838 162.788 388.832 162.928 388.818 163.088H380.418V162.308H387.958C387.945 161.014 387.605 160.041 386.938 159.388C386.272 158.734 385.418 158.408 384.378 158.408C383.738 158.408 383.138 158.554 382.578 158.848C382.018 159.141 381.558 159.594 381.198 160.208C380.852 160.821 380.678 161.601 380.678 162.548V162.908C380.678 163.921 380.852 164.761 381.198 165.428C381.545 166.081 381.998 166.568 382.558 166.888C383.118 167.208 383.725 167.368 384.378 167.368C385.218 167.368 385.912 167.174 386.458 166.788C387.005 166.388 387.405 165.828 387.658 165.108H388.558C388.385 165.694 388.112 166.221 387.738 166.688C387.378 167.154 386.918 167.521 386.358 167.788C385.798 168.041 385.138 168.168 384.378 168.168ZM400.477 168.168C399.557 168.168 398.731 167.954 397.997 167.528C397.277 167.101 396.704 166.494 396.277 165.708C395.864 164.908 395.657 163.974 395.657 162.908C395.657 161.801 395.871 160.854 396.297 160.068C396.724 159.281 397.304 158.674 398.037 158.248C398.771 157.821 399.597 157.608 400.517 157.608C401.451 157.608 402.277 157.821 402.997 158.248C403.731 158.674 404.304 159.281 404.717 160.068C405.144 160.854 405.357 161.801 405.357 162.908C405.357 163.974 405.144 164.908 404.717 165.708C404.291 166.494 403.711 167.101 402.977 167.528C402.244 167.954 401.411 168.168 400.477 168.168ZM400.477 167.368C401.171 167.368 401.811 167.201 402.397 166.868C402.997 166.534 403.484 166.034 403.857 165.368C404.231 164.701 404.417 163.874 404.417 162.888C404.417 161.901 404.231 161.074 403.857 160.408C403.497 159.741 403.017 159.248 402.417 158.928C401.831 158.594 401.197 158.428 400.517 158.428C399.837 158.428 399.197 158.594 398.597 158.928C397.997 159.261 397.511 159.761 397.137 160.428C396.777 161.081 396.597 161.901 396.597 162.888C396.597 163.874 396.777 164.701 397.137 165.368C397.511 166.034 397.991 166.534 398.577 166.868C399.164 167.201 399.797 167.368 400.477 167.368ZM407.738 172.328V157.848H408.538L408.638 160.368C408.838 159.861 409.125 159.401 409.498 158.988C409.872 158.574 410.325 158.241 410.858 157.988C411.405 157.734 412.018 157.608 412.698 157.608C413.672 157.608 414.512 157.841 415.218 158.308C415.938 158.761 416.492 159.388 416.878 160.188C417.265 160.974 417.458 161.881 417.458 162.908C417.458 163.921 417.265 164.828 416.878 165.628C416.492 166.414 415.938 167.034 415.218 167.488C414.512 167.941 413.665 168.168 412.678 168.168C411.718 168.168 410.885 167.921 410.178 167.428C409.472 166.934 408.958 166.248 408.638 165.368V172.328H407.738ZM412.638 167.348C413.398 167.348 414.065 167.168 414.638 166.808C415.225 166.448 415.685 165.934 416.018 165.268C416.352 164.601 416.518 163.808 416.518 162.888C416.518 161.981 416.352 161.194 416.018 160.528C415.685 159.861 415.225 159.348 414.638 158.988C414.065 158.614 413.398 158.428 412.638 158.428C411.878 158.428 411.205 158.621 410.618 159.008C410.032 159.381 409.572 159.908 409.238 160.588C408.918 161.254 408.758 162.021 408.758 162.888C408.758 163.768 408.918 164.548 409.238 165.228C409.572 165.894 410.032 166.414 410.618 166.788C411.205 167.161 411.878 167.348 412.638 167.348ZM423.988 168.168C423.041 168.168 422.221 167.948 421.528 167.508C420.848 167.068 420.321 166.448 419.948 165.648C419.574 164.848 419.388 163.908 419.388 162.828C419.388 161.734 419.581 160.801 419.968 160.028C420.368 159.254 420.914 158.661 421.608 158.248C422.314 157.821 423.121 157.608 424.028 157.608C425.001 157.608 425.814 157.828 426.468 158.268C427.121 158.694 427.614 159.261 427.948 159.968C428.281 160.674 428.448 161.448 428.448 162.288C428.448 162.421 428.448 162.548 428.448 162.668C428.448 162.788 428.441 162.928 428.428 163.088H420.028V162.308H427.568C427.554 161.014 427.214 160.041 426.548 159.388C425.881 158.734 425.028 158.408 423.988 158.408C423.348 158.408 422.748 158.554 422.188 158.848C421.628 159.141 421.168 159.594 420.808 160.208C420.461 160.821 420.288 161.601 420.288 162.548V162.908C420.288 163.921 420.461 164.761 420.808 165.428C421.154 166.081 421.608 166.568 422.168 166.888C422.728 167.208 423.334 167.368 423.988 167.368C424.828 167.368 425.521 167.174 426.068 166.788C426.614 166.388 427.014 165.828 427.268 165.108H428.168C427.994 165.694 427.721 166.221 427.348 166.688C426.988 167.154 426.528 167.521 425.968 167.788C425.408 168.041 424.748 168.168 423.988 168.168ZM430.707 167.928V157.848H431.507L431.587 159.888C431.934 159.128 432.414 158.561 433.027 158.188C433.654 157.801 434.347 157.608 435.107 157.608C435.84 157.608 436.487 157.754 437.047 158.048C437.607 158.341 438.047 158.794 438.367 159.408C438.687 160.008 438.847 160.788 438.847 161.748V167.928H437.947V161.888C437.947 160.701 437.694 159.828 437.187 159.268C436.68 158.708 435.947 158.428 434.987 158.428C434.347 158.428 433.767 158.588 433.247 158.908C432.74 159.214 432.34 159.668 432.047 160.268C431.754 160.868 431.607 161.608 431.607 162.488V167.928H430.707ZM449.988 168.168C449.255 168.168 448.595 168.048 448.008 167.808C447.422 167.554 446.948 167.181 446.588 166.688C446.242 166.194 446.022 165.581 445.928 164.848H446.888C446.942 165.381 447.108 165.834 447.388 166.208C447.682 166.581 448.055 166.868 448.508 167.068C448.962 167.254 449.462 167.348 450.008 167.348C450.555 167.348 451.015 167.261 451.388 167.088C451.775 166.914 452.068 166.674 452.268 166.368C452.482 166.048 452.588 165.694 452.588 165.308C452.588 164.814 452.482 164.434 452.268 164.168C452.068 163.888 451.762 163.674 451.348 163.528C450.935 163.381 450.415 163.248 449.788 163.128C449.282 163.034 448.822 162.914 448.408 162.768C448.008 162.621 447.662 162.441 447.368 162.228C447.075 162.014 446.848 161.754 446.688 161.448C446.542 161.128 446.468 160.768 446.468 160.368C446.468 159.821 446.602 159.341 446.868 158.928C447.148 158.514 447.535 158.194 448.028 157.968C448.522 157.728 449.108 157.608 449.788 157.608C450.748 157.608 451.542 157.861 452.168 158.368C452.808 158.874 453.175 159.621 453.268 160.608H452.348C452.308 159.954 452.062 159.428 451.608 159.028C451.168 158.628 450.555 158.428 449.768 158.428C449.008 158.428 448.422 158.601 448.008 158.948C447.608 159.281 447.408 159.728 447.408 160.288C447.408 160.608 447.488 160.894 447.648 161.148C447.822 161.401 448.095 161.628 448.468 161.828C448.842 162.014 449.342 162.174 449.968 162.308C450.622 162.428 451.215 162.581 451.748 162.768C452.295 162.954 452.728 163.234 453.048 163.608C453.368 163.981 453.528 164.514 453.528 165.208C453.528 165.781 453.382 166.294 453.088 166.748C452.808 167.188 452.402 167.534 451.868 167.788C451.348 168.041 450.722 168.168 449.988 168.168ZM460.341 168.168C459.421 168.168 458.594 167.954 457.861 167.528C457.141 167.101 456.567 166.494 456.141 165.708C455.727 164.908 455.521 163.974 455.521 162.908C455.521 161.801 455.734 160.854 456.161 160.068C456.587 159.281 457.167 158.674 457.901 158.248C458.634 157.821 459.461 157.608 460.381 157.608C461.314 157.608 462.141 157.821 462.861 158.248C463.594 158.674 464.167 159.281 464.581 160.068C465.007 160.854 465.221 161.801 465.221 162.908C465.221 163.974 465.007 164.908 464.581 165.708C464.154 166.494 463.574 167.101 462.841 167.528C462.107 167.954 461.274 168.168 460.341 168.168ZM460.341 167.368C461.034 167.368 461.674 167.201 462.261 166.868C462.861 166.534 463.347 166.034 463.721 165.368C464.094 164.701 464.281 163.874 464.281 162.888C464.281 161.901 464.094 161.074 463.721 160.408C463.361 159.741 462.881 159.248 462.281 158.928C461.694 158.594 461.061 158.428 460.381 158.428C459.701 158.428 459.061 158.594 458.461 158.928C457.861 159.261 457.374 159.761 457.001 160.428C456.641 161.081 456.461 161.901 456.461 162.888C456.461 163.874 456.641 164.701 457.001 165.368C457.374 166.034 457.854 166.534 458.441 166.868C459.027 167.201 459.661 167.368 460.341 167.368ZM471.122 168.168C470.402 168.168 469.755 168.028 469.182 167.748C468.622 167.454 468.182 167.008 467.862 166.408C467.542 165.794 467.382 165.001 467.382 164.028V157.848H468.282V163.908C468.282 165.081 468.535 165.948 469.042 166.508C469.562 167.068 470.308 167.348 471.282 167.348C471.935 167.348 472.508 167.194 473.002 166.888C473.508 166.581 473.902 166.128 474.182 165.528C474.475 164.914 474.622 164.168 474.622 163.288V157.848H475.522V167.928H474.742L474.622 165.888C474.288 166.661 473.808 167.234 473.182 167.608C472.555 167.981 471.868 168.168 471.122 168.168ZM478.363 167.928V157.848H479.163L479.263 159.888C479.49 159.354 479.783 158.921 480.143 158.588C480.517 158.254 480.957 158.008 481.463 157.848C481.97 157.688 482.543 157.608 483.183 157.608V158.528H482.823C482.423 158.528 482.01 158.581 481.583 158.688C481.17 158.794 480.783 158.988 480.423 159.268C480.077 159.534 479.797 159.921 479.583 160.428C479.37 160.934 479.263 161.581 479.263 162.368V167.928H478.363ZM488.854 168.168C487.948 168.168 487.134 167.954 486.414 167.528C485.694 167.088 485.128 166.474 484.714 165.688C484.314 164.888 484.114 163.961 484.114 162.908C484.114 161.828 484.321 160.894 484.734 160.108C485.161 159.308 485.734 158.694 486.454 158.268C487.174 157.828 487.974 157.608 488.854 157.608C489.988 157.608 490.928 157.901 491.674 158.488C492.434 159.074 492.914 159.828 493.114 160.748H492.174C492.014 160.028 491.634 159.461 491.034 159.048C490.448 158.634 489.721 158.428 488.854 158.428C488.214 158.428 487.601 158.594 487.014 158.928C486.428 159.248 485.954 159.741 485.594 160.408C485.234 161.061 485.054 161.894 485.054 162.908C485.054 163.681 485.161 164.348 485.374 164.908C485.588 165.468 485.874 165.934 486.234 166.308C486.608 166.668 487.021 166.934 487.474 167.108C487.928 167.281 488.388 167.368 488.854 167.368C489.414 167.368 489.921 167.281 490.374 167.108C490.841 166.921 491.234 166.654 491.554 166.308C491.874 165.948 492.081 165.521 492.174 165.028H493.114C492.928 165.934 492.461 166.688 491.714 167.288C490.981 167.874 490.028 168.168 488.854 168.168ZM499.632 168.168C498.686 168.168 497.866 167.948 497.172 167.508C496.492 167.068 495.966 166.448 495.592 165.648C495.219 164.848 495.032 163.908 495.032 162.828C495.032 161.734 495.226 160.801 495.612 160.028C496.012 159.254 496.559 158.661 497.252 158.248C497.959 157.821 498.766 157.608 499.672 157.608C500.646 157.608 501.459 157.828 502.112 158.268C502.766 158.694 503.259 159.261 503.592 159.968C503.926 160.674 504.092 161.448 504.092 162.288C504.092 162.421 504.092 162.548 504.092 162.668C504.092 162.788 504.086 162.928 504.072 163.088H495.672V162.308H503.212C503.199 161.014 502.859 160.041 502.192 159.388C501.526 158.734 500.672 158.408 499.632 158.408C498.992 158.408 498.392 158.554 497.832 158.848C497.272 159.141 496.812 159.594 496.452 160.208C496.106 160.821 495.932 161.601 495.932 162.548V162.908C495.932 163.921 496.106 164.761 496.452 165.428C496.799 166.081 497.252 166.568 497.812 166.888C498.372 167.208 498.979 167.368 499.632 167.368C500.472 167.368 501.166 167.174 501.712 166.788C502.259 166.388 502.659 165.828 502.912 165.108H503.812C503.639 165.694 503.366 166.221 502.992 166.688C502.632 167.154 502.172 167.521 501.612 167.788C501.052 168.041 500.392 168.168 499.632 168.168ZM510.611 167.928L515.751 153.928H516.711L521.791 167.928H520.831L516.211 155.088L511.551 167.928H510.611ZM512.791 163.488L513.091 162.728H519.331L519.631 163.488H512.791ZM524.186 167.928V153.928H525.086V167.928H524.186ZM537.35 168.168C536.444 168.168 535.63 167.954 534.91 167.528C534.19 167.088 533.624 166.474 533.21 165.688C532.81 164.888 532.61 163.961 532.61 162.908C532.61 161.828 532.817 160.894 533.23 160.108C533.657 159.308 534.23 158.694 534.95 158.268C535.67 157.828 536.47 157.608 537.35 157.608C538.484 157.608 539.424 157.901 540.17 158.488C540.93 159.074 541.41 159.828 541.61 160.748H540.67C540.51 160.028 540.13 159.461 539.53 159.048C538.944 158.634 538.217 158.428 537.35 158.428C536.71 158.428 536.097 158.594 535.51 158.928C534.924 159.248 534.45 159.741 534.09 160.408C533.73 161.061 533.55 161.894 533.55 162.908C533.55 163.681 533.657 164.348 533.87 164.908C534.084 165.468 534.37 165.934 534.73 166.308C535.104 166.668 535.517 166.934 535.97 167.108C536.424 167.281 536.884 167.368 537.35 167.368C537.91 167.368 538.417 167.281 538.87 167.108C539.337 166.921 539.73 166.654 540.05 166.308C540.37 165.948 540.577 165.521 540.67 165.028H541.61C541.424 165.934 540.957 166.688 540.21 167.288C539.477 167.874 538.524 168.168 537.35 168.168ZM548.348 168.168C547.428 168.168 546.602 167.954 545.868 167.528C545.148 167.101 544.575 166.494 544.148 165.708C543.735 164.908 543.528 163.974 543.528 162.908C543.528 161.801 543.742 160.854 544.168 160.068C544.595 159.281 545.175 158.674 545.908 158.248C546.642 157.821 547.468 157.608 548.388 157.608C549.322 157.608 550.148 157.821 550.868 158.248C551.602 158.674 552.175 159.281 552.588 160.068C553.015 160.854 553.228 161.801 553.228 162.908C553.228 163.974 553.015 164.908 552.588 165.708C552.162 166.494 551.582 167.101 550.848 167.528C550.115 167.954 549.282 168.168 548.348 168.168ZM548.348 167.368C549.042 167.368 549.682 167.201 550.268 166.868C550.868 166.534 551.355 166.034 551.728 165.368C552.102 164.701 552.288 163.874 552.288 162.888C552.288 161.901 552.102 161.074 551.728 160.408C551.368 159.741 550.888 159.248 550.288 158.928C549.702 158.594 549.068 158.428 548.388 158.428C547.708 158.428 547.068 158.594 546.468 158.928C545.868 159.261 545.382 159.761 545.008 160.428C544.648 161.081 544.468 161.901 544.468 162.888C544.468 163.874 544.648 164.701 545.008 165.368C545.382 166.034 545.862 166.534 546.448 166.868C547.035 167.201 547.668 167.368 548.348 167.368ZM557.179 167.928L554.319 157.848H555.259L557.739 166.928H557.599L560.379 157.848H561.419L564.159 166.908H564.019L566.539 157.848H567.479L564.559 167.928H563.599L560.839 158.668H560.979L558.119 167.928H557.179ZM573.387 168.168C572.467 168.168 571.641 167.954 570.907 167.528C570.187 167.101 569.614 166.494 569.187 165.708C568.774 164.908 568.567 163.974 568.567 162.908C568.567 161.801 568.781 160.854 569.207 160.068C569.634 159.281 570.214 158.674 570.947 158.248C571.681 157.821 572.507 157.608 573.427 157.608C574.361 157.608 575.187 157.821 575.907 158.248C576.641 158.674 577.214 159.281 577.627 160.068C578.054 160.854 578.267 161.801 578.267 162.908C578.267 163.974 578.054 164.908 577.627 165.708C577.201 166.494 576.621 167.101 575.887 167.528C575.154 167.954 574.321 168.168 573.387 168.168ZM573.387 167.368C574.081 167.368 574.721 167.201 575.307 166.868C575.907 166.534 576.394 166.034 576.767 165.368C577.141 164.701 577.327 163.874 577.327 162.888C577.327 161.901 577.141 161.074 576.767 160.408C576.407 159.741 575.927 159.248 575.327 158.928C574.741 158.594 574.107 158.428 573.427 158.428C572.747 158.428 572.107 158.594 571.507 158.928C570.907 159.261 570.421 159.761 570.047 160.428C569.687 161.081 569.507 161.901 569.507 162.888C569.507 163.874 569.687 164.701 570.047 165.368C570.421 166.034 570.901 166.534 571.487 166.868C572.074 167.201 572.707 167.368 573.387 167.368ZM580.649 167.928V157.848H581.449L581.549 159.888C581.775 159.354 582.069 158.921 582.429 158.588C582.802 158.254 583.242 158.008 583.749 157.848C584.255 157.688 584.829 157.608 585.469 157.608V158.528H585.109C584.709 158.528 584.295 158.581 583.869 158.688C583.455 158.794 583.069 158.988 582.709 159.268C582.362 159.534 582.082 159.921 581.869 160.428C581.655 160.934 581.549 161.581 581.549 162.368V167.928H580.649ZM593.306 167.928L588.126 162.408L592.906 157.848H594.086L588.986 162.688V162.128L594.526 167.928H593.306ZM587.406 167.928V153.528H588.306V167.928H587.406ZM599.828 168.168C598.881 168.168 598.061 167.948 597.368 167.508C596.688 167.068 596.161 166.448 595.788 165.648C595.414 164.848 595.228 163.908 595.228 162.828C595.228 161.734 595.421 160.801 595.808 160.028C596.208 159.254 596.754 158.661 597.448 158.248C598.154 157.821 598.961 157.608 599.868 157.608C600.841 157.608 601.654 157.828 602.308 158.268C602.961 158.694 603.454 159.261 603.788 159.968C604.121 160.674 604.288 161.448 604.288 162.288C604.288 162.421 604.288 162.548 604.288 162.668C604.288 162.788 604.281 162.928 604.268 163.088H595.868V162.308H603.408C603.394 161.014 603.054 160.041 602.388 159.388C601.721 158.734 600.868 158.408 599.828 158.408C599.188 158.408 598.588 158.554 598.028 158.848C597.468 159.141 597.008 159.594 596.648 160.208C596.301 160.821 596.128 161.601 596.128 162.548V162.908C596.128 163.921 596.301 164.761 596.648 165.428C596.994 166.081 597.448 166.568 598.008 166.888C598.568 167.208 599.174 167.368 599.828 167.368C600.668 167.368 601.361 167.174 601.908 166.788C602.454 166.388 602.854 165.828 603.108 165.108H604.008C603.834 165.694 603.561 166.221 603.188 166.688C602.828 167.154 602.368 167.521 601.808 167.788C601.248 168.041 600.588 168.168 599.828 168.168ZM606.547 167.928V157.848H607.347L607.447 159.888C607.674 159.354 607.967 158.921 608.327 158.588C608.7 158.254 609.14 158.008 609.647 157.848C610.154 157.688 610.727 157.608 611.367 157.608V158.528H611.007C610.607 158.528 610.194 158.581 609.767 158.688C609.354 158.794 608.967 158.988 608.607 159.268C608.26 159.534 607.98 159.921 607.767 160.428C607.554 160.934 607.447 161.581 607.447 162.368V167.928H606.547ZM621.844 167.928C621.311 167.928 620.858 167.848 620.484 167.688C620.124 167.528 619.844 167.254 619.644 166.868C619.458 166.468 619.364 165.934 619.364 165.268V158.628H617.604V157.848H619.364L619.504 155.648H620.264V157.848H623.424V158.628H620.264V165.248C620.264 165.954 620.404 166.448 620.684 166.728C620.964 167.008 621.438 167.148 622.104 167.148H623.224V167.928H621.844ZM625.57 167.928V153.528H626.47V159.948C626.804 159.201 627.29 158.628 627.93 158.228C628.584 157.814 629.277 157.608 630.01 157.608C630.744 157.608 631.39 157.754 631.95 158.048C632.51 158.341 632.944 158.794 633.25 159.408C633.57 160.021 633.73 160.808 633.73 161.768V167.928H632.85V161.908C632.85 160.721 632.597 159.848 632.09 159.288C631.584 158.714 630.857 158.428 629.91 158.428C629.257 158.428 628.67 158.594 628.15 158.928C627.63 159.248 627.217 159.714 626.91 160.328C626.617 160.928 626.47 161.668 626.47 162.548V167.928H625.57ZM639.392 168.168C638.632 168.168 637.992 168.021 637.472 167.728C636.952 167.434 636.558 167.054 636.292 166.588C636.025 166.108 635.892 165.594 635.892 165.048C635.892 164.314 636.058 163.714 636.392 163.248C636.725 162.781 637.192 162.434 637.792 162.208C638.405 161.968 639.112 161.848 639.912 161.848H642.952C642.952 161.128 642.845 160.514 642.632 160.008C642.432 159.501 642.118 159.108 641.692 158.828C641.265 158.548 640.705 158.408 640.012 158.408C639.198 158.408 638.525 158.601 637.992 158.988C637.472 159.374 637.138 159.961 636.992 160.748H636.072C636.165 160.041 636.398 159.461 636.772 159.008C637.158 158.541 637.632 158.194 638.192 157.968C638.752 157.728 639.358 157.608 640.012 157.608C640.932 157.608 641.672 157.794 642.232 158.168C642.792 158.528 643.198 159.021 643.452 159.648C643.718 160.261 643.852 160.961 643.852 161.748V167.928H643.052L642.952 165.908C642.845 166.121 642.698 166.361 642.512 166.628C642.325 166.894 642.092 167.141 641.812 167.368C641.532 167.594 641.192 167.781 640.792 167.928C640.405 168.088 639.938 168.168 639.392 168.168ZM639.492 167.348C640.065 167.348 640.565 167.241 640.992 167.028C641.418 166.801 641.778 166.508 642.072 166.148C642.365 165.774 642.585 165.374 642.732 164.948C642.878 164.521 642.952 164.101 642.952 163.688V162.628H639.972C639.185 162.628 638.565 162.734 638.112 162.948C637.658 163.148 637.332 163.428 637.132 163.788C636.945 164.148 636.852 164.561 636.852 165.028C636.852 165.454 636.952 165.848 637.152 166.208C637.352 166.554 637.652 166.834 638.052 167.048C638.452 167.248 638.932 167.348 639.492 167.348ZM649.598 167.928C649.065 167.928 648.612 167.848 648.238 167.688C647.878 167.528 647.598 167.254 647.398 166.868C647.212 166.468 647.118 165.934 647.118 165.268V158.628H645.358V157.848H647.118L647.258 155.648H648.018V157.848H651.178V158.628H648.018V165.248C648.018 165.954 648.158 166.448 648.438 166.728C648.718 167.008 649.192 167.148 649.858 167.148H650.978V167.928H649.598ZM658.344 167.928V153.528H659.244V167.928H658.344ZM662.175 167.928V157.848H663.075V167.928H662.175ZM662.635 155.188C662.448 155.188 662.281 155.121 662.135 154.988C662.001 154.841 661.935 154.668 661.935 154.468C661.935 154.268 662.001 154.108 662.135 153.988C662.281 153.854 662.448 153.788 662.635 153.788C662.821 153.788 662.981 153.854 663.115 153.988C663.261 154.108 663.335 154.268 663.335 154.468C663.335 154.668 663.261 154.841 663.115 154.988C662.981 155.121 662.821 155.188 662.635 155.188ZM669.099 167.928L665.159 157.848H666.139L669.619 166.988L673.099 157.848H674.059L670.119 167.928H669.099ZM679.71 168.168C678.764 168.168 677.944 167.948 677.25 167.508C676.57 167.068 676.044 166.448 675.67 165.648C675.297 164.848 675.11 163.908 675.11 162.828C675.11 161.734 675.304 160.801 675.69 160.028C676.09 159.254 676.637 158.661 677.33 158.248C678.037 157.821 678.844 157.608 679.75 157.608C680.724 157.608 681.537 157.828 682.19 158.268C682.844 158.694 683.337 159.261 683.67 159.968C684.004 160.674 684.17 161.448 684.17 162.288C684.17 162.421 684.17 162.548 684.17 162.668C684.17 162.788 684.164 162.928 684.15 163.088H675.75V162.308H683.29C683.277 161.014 682.937 160.041 682.27 159.388C681.604 158.734 680.75 158.408 679.71 158.408C679.07 158.408 678.47 158.554 677.91 158.848C677.35 159.141 676.89 159.594 676.53 160.208C676.184 160.821 676.01 161.601 676.01 162.548V162.908C676.01 163.921 676.184 164.761 676.53 165.428C676.877 166.081 677.33 166.568 677.89 166.888C678.45 167.208 679.057 167.368 679.71 167.368C680.55 167.368 681.244 167.174 681.79 166.788C682.337 166.388 682.737 165.828 682.99 165.108H683.89C683.717 165.694 683.444 166.221 683.07 166.688C682.71 167.154 682.25 167.521 681.69 167.788C681.13 168.041 680.47 168.168 679.71 168.168ZM689.93 168.168C689.196 168.168 688.536 168.048 687.95 167.808C687.363 167.554 686.89 167.181 686.53 166.688C686.183 166.194 685.963 165.581 685.87 164.848H686.83C686.883 165.381 687.05 165.834 687.33 166.208C687.623 166.581 687.996 166.868 688.45 167.068C688.903 167.254 689.403 167.348 689.95 167.348C690.496 167.348 690.956 167.261 691.33 167.088C691.716 166.914 692.01 166.674 692.21 166.368C692.423 166.048 692.53 165.694 692.53 165.308C692.53 164.814 692.423 164.434 692.21 164.168C692.01 163.888 691.703 163.674 691.29 163.528C690.876 163.381 690.356 163.248 689.73 163.128C689.223 163.034 688.763 162.914 688.35 162.768C687.95 162.621 687.603 162.441 687.31 162.228C687.016 162.014 686.79 161.754 686.63 161.448C686.483 161.128 686.41 160.768 686.41 160.368C686.41 159.821 686.543 159.341 686.81 158.928C687.09 158.514 687.476 158.194 687.97 157.968C688.463 157.728 689.05 157.608 689.73 157.608C690.69 157.608 691.483 157.861 692.11 158.368C692.75 158.874 693.116 159.621 693.21 160.608H692.29C692.25 159.954 692.003 159.428 691.55 159.028C691.11 158.628 690.496 158.428 689.71 158.428C688.95 158.428 688.363 158.601 687.95 158.948C687.55 159.281 687.35 159.728 687.35 160.288C687.35 160.608 687.43 160.894 687.59 161.148C687.763 161.401 688.036 161.628 688.41 161.828C688.783 162.014 689.283 162.174 689.91 162.308C690.563 162.428 691.156 162.581 691.69 162.768C692.236 162.954 692.67 163.234 692.99 163.608C693.31 163.981 693.47 164.514 693.47 165.208C693.47 165.781 693.323 166.294 693.03 166.748C692.75 167.188 692.343 167.534 691.81 167.788C691.29 168.041 690.663 168.168 689.93 168.168ZM705.301 168.168C704.381 168.168 703.555 167.954 702.821 167.528C702.101 167.101 701.528 166.494 701.101 165.708C700.688 164.908 700.481 163.974 700.481 162.908C700.481 161.801 700.695 160.854 701.121 160.068C701.548 159.281 702.128 158.674 702.861 158.248C703.595 157.821 704.421 157.608 705.341 157.608C706.275 157.608 707.101 157.821 707.821 158.248C708.555 158.674 709.128 159.281 709.541 160.068C709.968 160.854 710.181 161.801 710.181 162.908C710.181 163.974 709.968 164.908 709.541 165.708C709.115 166.494 708.535 167.101 707.801 167.528C707.068 167.954 706.235 168.168 705.301 168.168ZM705.301 167.368C705.995 167.368 706.635 167.201 707.221 166.868C707.821 166.534 708.308 166.034 708.681 165.368C709.055 164.701 709.241 163.874 709.241 162.888C709.241 161.901 709.055 161.074 708.681 160.408C708.321 159.741 707.841 159.248 707.241 158.928C706.655 158.594 706.021 158.428 705.341 158.428C704.661 158.428 704.021 158.594 703.421 158.928C702.821 159.261 702.335 159.761 701.961 160.428C701.601 161.081 701.421 161.901 701.421 162.888C701.421 163.874 701.601 164.701 701.961 165.368C702.335 166.034 702.815 166.534 703.401 166.868C703.988 167.201 704.621 167.368 705.301 167.368ZM712.563 167.928V157.848H713.363L713.443 159.888C713.789 159.128 714.269 158.561 714.883 158.188C715.509 157.801 716.203 157.608 716.963 157.608C717.696 157.608 718.343 157.754 718.903 158.048C719.463 158.341 719.903 158.794 720.223 159.408C720.543 160.008 720.703 160.788 720.703 161.748V167.928H719.803V161.888C719.803 160.701 719.549 159.828 719.043 159.268C718.536 158.708 717.803 158.428 716.843 158.428C716.203 158.428 715.623 158.588 715.103 158.908C714.596 159.214 714.196 159.668 713.903 160.268C713.609 160.868 713.463 161.608 713.463 162.488V167.928H712.563ZM729.264 172.328L731.804 166.808H731.464L727.324 157.848H728.324L732.104 166.128L735.924 157.848H736.884L730.204 172.328H729.264ZM742.255 168.168C741.335 168.168 740.508 167.954 739.775 167.528C739.055 167.101 738.481 166.494 738.055 165.708C737.641 164.908 737.435 163.974 737.435 162.908C737.435 161.801 737.648 160.854 738.075 160.068C738.501 159.281 739.081 158.674 739.815 158.248C740.548 157.821 741.375 157.608 742.295 157.608C743.228 157.608 744.055 157.821 744.775 158.248C745.508 158.674 746.081 159.281 746.495 160.068C746.921 160.854 747.135 161.801 747.135 162.908C747.135 163.974 746.921 164.908 746.495 165.708C746.068 166.494 745.488 167.101 744.755 167.528C744.021 167.954 743.188 168.168 742.255 168.168ZM742.255 167.368C742.948 167.368 743.588 167.201 744.175 166.868C744.775 166.534 745.261 166.034 745.635 165.368C746.008 164.701 746.195 163.874 746.195 162.888C746.195 161.901 746.008 161.074 745.635 160.408C745.275 159.741 744.795 159.248 744.195 158.928C743.608 158.594 742.975 158.428 742.295 158.428C741.615 158.428 740.975 158.594 740.375 158.928C739.775 159.261 739.288 159.761 738.915 160.428C738.555 161.081 738.375 161.901 738.375 162.888C738.375 163.874 738.555 164.701 738.915 165.368C739.288 166.034 739.768 166.534 740.355 166.868C740.941 167.201 741.575 167.368 742.255 167.368ZM753.036 168.168C752.316 168.168 751.669 168.028 751.096 167.748C750.536 167.454 750.096 167.008 749.776 166.408C749.456 165.794 749.296 165.001 749.296 164.028V157.848H750.196V163.908C750.196 165.081 750.449 165.948 750.956 166.508C751.476 167.068 752.222 167.348 753.196 167.348C753.849 167.348 754.422 167.194 754.916 166.888C755.422 166.581 755.816 166.128 756.096 165.528C756.389 164.914 756.536 164.168 756.536 163.288V157.848H757.436V167.928H756.656L756.536 165.888C756.202 166.661 755.722 167.234 755.096 167.608C754.469 167.981 753.782 168.168 753.036 168.168ZM760.277 167.928V157.848H761.077L761.177 159.888C761.404 159.354 761.697 158.921 762.057 158.588C762.431 158.254 762.871 158.008 763.377 157.848C763.884 157.688 764.457 157.608 765.097 157.608V158.528H764.737C764.337 158.528 763.924 158.581 763.497 158.688C763.084 158.794 762.697 158.988 762.337 159.268C761.991 159.534 761.711 159.921 761.497 160.428C761.284 160.934 761.177 161.581 761.177 162.368V167.928H760.277ZM776.355 168.168C775.381 168.168 774.535 167.941 773.815 167.488C773.108 167.021 772.561 166.394 772.175 165.608C771.788 164.808 771.595 163.901 771.595 162.888C771.595 161.874 771.788 160.974 772.175 160.188C772.561 159.388 773.115 158.761 773.835 158.308C774.555 157.841 775.401 157.608 776.375 157.608C777.348 157.608 778.181 157.861 778.875 158.368C779.581 158.861 780.095 159.541 780.415 160.408V153.528H781.315V167.928H780.515L780.395 165.448C780.195 165.954 779.901 166.414 779.515 166.828C779.141 167.228 778.688 167.554 778.155 167.808C777.621 168.048 777.021 168.168 776.355 168.168ZM776.415 167.348C777.175 167.348 777.848 167.161 778.435 166.788C779.021 166.401 779.475 165.874 779.795 165.208C780.128 164.528 780.295 163.754 780.295 162.888C780.295 162.008 780.128 161.234 779.795 160.568C779.475 159.888 779.021 159.361 778.435 158.988C777.861 158.614 777.188 158.428 776.415 158.428C775.668 158.428 774.995 158.608 774.395 158.968C773.808 159.328 773.348 159.848 773.015 160.528C772.681 161.194 772.515 161.981 772.515 162.888C772.515 163.794 772.681 164.581 773.015 165.248C773.361 165.914 773.828 166.434 774.415 166.808C775.001 167.168 775.668 167.348 776.415 167.348ZM788.304 168.168C787.357 168.168 786.537 167.948 785.844 167.508C785.164 167.068 784.637 166.448 784.264 165.648C783.891 164.848 783.704 163.908 783.704 162.828C783.704 161.734 783.897 160.801 784.284 160.028C784.684 159.254 785.231 158.661 785.924 158.248C786.631 157.821 787.437 157.608 788.344 157.608C789.317 157.608 790.131 157.828 790.784 158.268C791.437 158.694 791.931 159.261 792.264 159.968C792.597 160.674 792.764 161.448 792.764 162.288C792.764 162.421 792.764 162.548 792.764 162.668C792.764 162.788 792.757 162.928 792.744 163.088H784.344V162.308H791.884C791.871 161.014 791.531 160.041 790.864 159.388C790.197 158.734 789.344 158.408 788.304 158.408C787.664 158.408 787.064 158.554 786.504 158.848C785.944 159.141 785.484 159.594 785.124 160.208C784.777 160.821 784.604 161.601 784.604 162.548V162.908C784.604 163.921 784.777 164.761 785.124 165.428C785.471 166.081 785.924 166.568 786.484 166.888C787.044 167.208 787.651 167.368 788.304 167.368C789.144 167.368 789.837 167.174 790.384 166.788C790.931 166.388 791.331 165.828 791.584 165.108H792.484C792.311 165.694 792.037 166.221 791.664 166.688C791.304 167.154 790.844 167.521 790.284 167.788C789.724 168.041 789.064 168.168 788.304 168.168ZM798.524 168.168C797.79 168.168 797.13 168.048 796.544 167.808C795.957 167.554 795.484 167.181 795.124 166.688C794.777 166.194 794.557 165.581 794.464 164.848H795.424C795.477 165.381 795.644 165.834 795.924 166.208C796.217 166.581 796.59 166.868 797.044 167.068C797.497 167.254 797.997 167.348 798.544 167.348C799.09 167.348 799.55 167.261 799.924 167.088C800.31 166.914 800.604 166.674 800.804 166.368C801.017 166.048 801.124 165.694 801.124 165.308C801.124 164.814 801.017 164.434 800.804 164.168C800.604 163.888 800.297 163.674 799.884 163.528C799.47 163.381 798.95 163.248 798.324 163.128C797.817 163.034 797.357 162.914 796.944 162.768C796.544 162.621 796.197 162.441 795.904 162.228C795.61 162.014 795.384 161.754 795.224 161.448C795.077 161.128 795.004 160.768 795.004 160.368C795.004 159.821 795.137 159.341 795.404 158.928C795.684 158.514 796.07 158.194 796.564 157.968C797.057 157.728 797.644 157.608 798.324 157.608C799.284 157.608 800.077 157.861 800.704 158.368C801.344 158.874 801.71 159.621 801.804 160.608H800.884C800.844 159.954 800.597 159.428 800.144 159.028C799.704 158.628 799.09 158.428 798.304 158.428C797.544 158.428 796.957 158.601 796.544 158.948C796.144 159.281 795.944 159.728 795.944 160.288C795.944 160.608 796.024 160.894 796.184 161.148C796.357 161.401 796.63 161.628 797.004 161.828C797.377 162.014 797.877 162.174 798.504 162.308C799.157 162.428 799.75 162.581 800.284 162.768C800.83 162.954 801.264 163.234 801.584 163.608C801.904 163.981 802.064 164.514 802.064 165.208C802.064 165.781 801.917 166.294 801.624 166.748C801.344 167.188 800.937 167.534 800.404 167.788C799.884 168.041 799.257 168.168 798.524 168.168ZM810.416 167.928L805.236 162.408L810.016 157.848H811.196L806.096 162.688V162.128L811.636 167.928H810.416ZM804.516 167.928V153.528H805.416V167.928H804.516ZM816.942 167.928C816.409 167.928 815.955 167.848 815.582 167.688C815.222 167.528 814.942 167.254 814.742 166.868C814.555 166.468 814.462 165.934 814.462 165.268V158.628H812.702V157.848H814.462L814.602 155.648H815.362V157.848H818.522V158.628H815.362V165.248C815.362 165.954 815.502 166.448 815.782 166.728C816.062 167.008 816.535 167.148 817.202 167.148H818.322V167.928H816.942ZM824.755 168.168C823.835 168.168 823.008 167.954 822.275 167.528C821.555 167.101 820.981 166.494 820.555 165.708C820.141 164.908 819.935 163.974 819.935 162.908C819.935 161.801 820.148 160.854 820.575 160.068C821.001 159.281 821.581 158.674 822.315 158.248C823.048 157.821 823.875 157.608 824.795 157.608C825.728 157.608 826.555 157.821 827.275 158.248C828.008 158.674 828.581 159.281 828.995 160.068C829.421 160.854 829.635 161.801 829.635 162.908C829.635 163.974 829.421 164.908 828.995 165.708C828.568 166.494 827.988 167.101 827.255 167.528C826.521 167.954 825.688 168.168 824.755 168.168ZM824.755 167.368C825.448 167.368 826.088 167.201 826.675 166.868C827.275 166.534 827.761 166.034 828.135 165.368C828.508 164.701 828.695 163.874 828.695 162.888C828.695 161.901 828.508 161.074 828.135 160.408C827.775 159.741 827.295 159.248 826.695 158.928C826.108 158.594 825.475 158.428 824.795 158.428C824.115 158.428 823.475 158.594 822.875 158.928C822.275 159.261 821.788 159.761 821.415 160.428C821.055 161.081 820.875 161.901 820.875 162.888C820.875 163.874 821.055 164.701 821.415 165.368C821.788 166.034 822.268 166.534 822.855 166.868C823.441 167.201 824.075 167.368 824.755 167.368ZM832.016 172.328V157.848H832.816L832.916 160.368C833.116 159.861 833.402 159.401 833.776 158.988C834.149 158.574 834.602 158.241 835.136 157.988C835.682 157.734 836.296 157.608 836.976 157.608C837.949 157.608 838.789 157.841 839.496 158.308C840.216 158.761 840.769 159.388 841.156 160.188C841.542 160.974 841.736 161.881 841.736 162.908C841.736 163.921 841.542 164.828 841.156 165.628C840.769 166.414 840.216 167.034 839.496 167.488C838.789 167.941 837.942 168.168 836.956 168.168C835.996 168.168 835.162 167.921 834.456 167.428C833.749 166.934 833.236 166.248 832.916 165.368V172.328H832.016ZM836.916 167.348C837.676 167.348 838.342 167.168 838.916 166.808C839.502 166.448 839.962 165.934 840.296 165.268C840.629 164.601 840.796 163.808 840.796 162.888C840.796 161.981 840.629 161.194 840.296 160.528C839.962 159.861 839.502 159.348 838.916 158.988C838.342 158.614 837.676 158.428 836.916 158.428C836.156 158.428 835.482 158.621 834.896 159.008C834.309 159.381 833.849 159.908 833.516 160.588C833.196 161.254 833.036 162.021 833.036 162.888C833.036 163.768 833.196 164.548 833.516 165.228C833.849 165.894 834.309 166.414 834.896 166.788C835.482 167.161 836.156 167.348 836.916 167.348Z" fill="#9EADA9"/>
<path d="M638 192.928H562C555.373 192.928 550 198.3 550 204.928C550 211.555 555.373 216.928 562 216.928H638C644.627 216.928 650 211.555 650 204.928C650 198.3 644.627 192.928 638 192.928Z" fill="#22C55E" fill-opacity="0.15"/>
<path d="M564.883 208.928C567.092 208.928 568.883 207.137 568.883 204.928C568.883 202.719 567.092 200.928 564.883 200.928C562.674 200.928 560.883 202.719 560.883 204.928C560.883 207.137 562.674 208.928 564.883 208.928Z" fill="#22C55E"/>
<path d="M574.309 208.928V200.528H575.485L578.401 206.42L581.317 200.528H582.505V208.928H581.497V202.34L578.785 207.776H578.029L575.317 202.364V208.928H574.309ZM584.329 208.928V200.528H585.337V208.928H584.329ZM589.109 208.928V201.356H586.601V200.528H592.625V201.356H590.117V208.928H589.109ZM597.09 208.928V200.528H598.098V208.124H602.01V208.928H597.09ZM603.466 208.928V202.772H604.474V208.928H603.466ZM603.97 201.524C603.77 201.524 603.602 201.46 603.466 201.332C603.338 201.196 603.274 201.028 603.274 200.828C603.274 200.628 603.338 200.468 603.466 200.348C603.602 200.22 603.77 200.156 603.97 200.156C604.162 200.156 604.326 200.22 604.462 200.348C604.598 200.468 604.666 200.628 604.666 200.828C604.666 201.028 604.598 201.196 604.462 201.332C604.326 201.46 604.162 201.524 603.97 201.524ZM608.977 209.072C608.401 209.072 607.885 208.94 607.429 208.676C606.981 208.404 606.629 208.028 606.373 207.548C606.117 207.06 605.989 206.496 605.989 205.856C605.989 205.208 606.117 204.644 606.373 204.164C606.629 203.684 606.981 203.308 607.429 203.036C607.885 202.764 608.401 202.628 608.977 202.628C609.689 202.628 610.285 202.82 610.765 203.204C611.253 203.58 611.561 204.084 611.689 204.716H610.657C610.577 204.332 610.377 204.032 610.057 203.816C609.745 203.6 609.381 203.492 608.965 203.492C608.605 203.492 608.277 203.584 607.981 203.768C607.693 203.944 607.461 204.208 607.285 204.56C607.109 204.904 607.021 205.336 607.021 205.856C607.021 206.24 607.069 206.58 607.165 206.876C607.269 207.172 607.409 207.42 607.585 207.62C607.761 207.82 607.965 207.972 608.197 208.076C608.437 208.172 608.693 208.22 608.965 208.22C609.245 208.22 609.501 208.172 609.733 208.076C609.973 207.98 610.173 207.84 610.333 207.656C610.493 207.472 610.601 207.252 610.657 206.996H611.689C611.561 207.612 611.253 208.112 610.765 208.496C610.285 208.88 609.689 209.072 608.977 209.072ZM615.772 209.072C615.212 209.072 614.712 208.94 614.272 208.676C613.84 208.404 613.5 208.028 613.252 207.548C613.004 207.06 612.88 206.496 612.88 205.856C612.88 205.208 613.004 204.644 613.252 204.164C613.5 203.676 613.84 203.3 614.272 203.036C614.712 202.764 615.22 202.628 615.796 202.628C616.396 202.628 616.9 202.764 617.308 203.036C617.724 203.3 618.04 203.652 618.256 204.092C618.472 204.532 618.58 205.012 618.58 205.532C618.58 205.612 618.58 205.696 618.58 205.784C618.58 205.872 618.576 205.972 618.568 206.084H613.636V205.304H617.584C617.568 204.72 617.388 204.272 617.044 203.96C616.708 203.64 616.284 203.48 615.772 203.48C615.436 203.48 615.124 203.56 614.836 203.72C614.548 203.88 614.312 204.116 614.128 204.428C613.952 204.732 613.864 205.116 613.864 205.58V205.916C613.864 206.42 613.952 206.844 614.128 207.188C614.312 207.532 614.548 207.792 614.836 207.968C615.124 208.136 615.436 208.22 615.772 208.22C616.212 208.22 616.564 208.132 616.828 207.956C617.092 207.772 617.288 207.516 617.416 207.188H618.412C618.308 207.548 618.136 207.872 617.896 208.16C617.664 208.44 617.368 208.664 617.008 208.832C616.656 208.992 616.244 209.072 615.772 209.072ZM619.94 208.928V202.772H620.852L620.912 203.804C621.096 203.436 621.364 203.148 621.716 202.94C622.068 202.732 622.472 202.628 622.928 202.628C623.4 202.628 623.808 202.72 624.152 202.904C624.496 203.088 624.764 203.368 624.956 203.744C625.148 204.112 625.244 204.58 625.244 205.148V208.928H624.236V205.256C624.236 204.672 624.1 204.232 623.828 203.936C623.556 203.64 623.18 203.492 622.7 203.492C622.38 203.492 622.084 203.572 621.812 203.732C621.548 203.892 621.336 204.124 621.176 204.428C621.024 204.724 620.948 205.092 620.948 205.532V208.928H619.94ZM629.122 209.072C628.594 209.072 628.142 208.988 627.766 208.82C627.398 208.652 627.11 208.416 626.902 208.112C626.694 207.808 626.566 207.452 626.518 207.044H627.55C627.59 207.252 627.67 207.448 627.79 207.632C627.918 207.808 628.09 207.952 628.306 208.064C628.53 208.168 628.806 208.22 629.134 208.22C629.414 208.22 629.646 208.18 629.83 208.1C630.022 208.012 630.162 207.896 630.25 207.752C630.346 207.6 630.394 207.436 630.394 207.26C630.394 207.004 630.334 206.808 630.214 206.672C630.102 206.536 629.934 206.432 629.71 206.36C629.494 206.28 629.226 206.216 628.906 206.168C628.602 206.12 628.318 206.056 628.054 205.976C627.798 205.888 627.57 205.776 627.37 205.64C627.178 205.504 627.026 205.336 626.914 205.136C626.81 204.928 626.758 204.68 626.758 204.392C626.758 204.048 626.846 203.744 627.022 203.48C627.206 203.216 627.462 203.008 627.79 202.856C628.126 202.704 628.522 202.628 628.978 202.628C629.634 202.628 630.162 202.784 630.562 203.096C630.962 203.408 631.198 203.856 631.27 204.44H630.274C630.234 204.144 630.098 203.912 629.866 203.744C629.642 203.568 629.342 203.48 628.966 203.48C628.574 203.48 628.278 203.556 628.078 203.708C627.878 203.86 627.778 204.06 627.778 204.308C627.778 204.484 627.826 204.64 627.922 204.776C628.026 204.904 628.186 205.016 628.402 205.112C628.626 205.2 628.906 205.272 629.242 205.328C629.666 205.392 630.042 205.484 630.37 205.604C630.698 205.724 630.958 205.908 631.15 206.156C631.342 206.396 631.434 206.736 631.426 207.176C631.434 207.56 631.342 207.896 631.15 208.184C630.958 208.472 630.69 208.692 630.346 208.844C630.002 208.996 629.594 209.072 629.122 209.072ZM635.541 209.072C634.981 209.072 634.481 208.94 634.041 208.676C633.609 208.404 633.269 208.028 633.021 207.548C632.773 207.06 632.649 206.496 632.649 205.856C632.649 205.208 632.773 204.644 633.021 204.164C633.269 203.676 633.609 203.3 634.041 203.036C634.481 202.764 634.989 202.628 635.565 202.628C636.165 202.628 636.669 202.764 637.077 203.036C637.493 203.3 637.809 203.652 638.025 204.092C638.241 204.532 638.349 205.012 638.349 205.532C638.349 205.612 638.349 205.696 638.349 205.784C638.349 205.872 638.345 205.972 638.337 206.084H633.405V205.304H637.353C637.337 204.72 637.157 204.272 636.813 203.96C636.477 203.64 636.053 203.48 635.541 203.48C635.205 203.48 634.893 203.56 634.605 203.72C634.317 203.88 634.081 204.116 633.897 204.428C633.721 204.732 633.633 205.116 633.633 205.58V205.916C633.633 206.42 633.721 206.844 633.897 207.188C634.081 207.532 634.317 207.792 634.605 207.968C634.893 208.136 635.205 208.22 635.541 208.22C635.981 208.22 636.333 208.132 636.597 207.956C636.861 207.772 637.057 207.516 637.185 207.188H638.181C638.077 207.548 637.905 207.872 637.665 208.16C637.433 208.44 637.137 208.664 636.777 208.832C636.425 208.992 636.013 209.072 635.541 209.072Z" fill="#22C55E"/>
<defs>
<clipPath id="clip0_235_2140">
<rect width="290" height="45.8558" fill="white" transform="translate(455 83.072)"/>
</clipPath>
<clipPath id="clip1_235_2140">
<rect width="290" height="45.8558" fill="white" transform="translate(455 83.072)"/>
</clipPath>
</defs>
</svg>
