<svg xmlns="http://www.w3.org/2000/svg" viewBox="0 0 100 100" fill="none">
  <path d="M50 5C25.2 5 5 25.2 5 50s20.2 45 45 45 45-20.2 45-45S74.8 5 50 5z" fill="#FFD21E"/>
  <path d="M35.5 43.5c0-3.6-2.9-6.5-6.5-6.5s-6.5 2.9-6.5 6.5c0 2 .9 3.8 2.3 5l-.8 4.5h10l-.8-4.5c1.4-1.2 2.3-3 2.3-5z" fill="#1A1A2E"/>
  <path d="M77.5 43.5c0-3.6-2.9-6.5-6.5-6.5s-6.5 2.9-6.5 6.5c0 2 .9 3.8 2.3 5l-.8 4.5h10l-.8-4.5c1.4-1.2 2.3-3 2.3-5z" fill="#1A1A2E"/>
  <path d="M50 68c-8.3 0-15-4.5-15-10h30c0 5.5-6.7 10-15 10z" fill="#1A1A2E"/>
  <circle cx="29" cy="43" r="3" fill="#FFD21E"/>
  <circle cx="71" cy="43" r="3" fill="#FFD21E"/>
  <path d="M25 32c2-5 6-8 10-9M65 23c4 1 8 4 10 9" stroke="#1A1A2E" stroke-width="3" stroke-linecap="round" fill="none"/>
</svg>
